<?xml version="1.0" standalone="no"?>
<!DOCTYPE svg PUBLIC "-//W3C//DTD SVG 20010904//EN"
 "http://www.w3.org/TR/2001/REC-SVG-20010904/DTD/svg10.dtd">
<svg version="1.0" xmlns="http://www.w3.org/2000/svg"
 width="511.000000pt" height="511.000000pt" viewBox="0 0 511.000000 511.000000"
 preserveAspectRatio="xMidYMid meet">
<metadata>
Created by potrace 1.14, written by Peter Selinger 2001-2017
</metadata>
<g transform="translate(0.000000,511.000000) scale(0.100000,-0.100000)"
fill="#000000" stroke="none">
<path d="M2461 4291 c-7 -5 -22 -6 -34 -3 -13 3 -18 1 -13 -6 7 -11 -24 -9
-43 3 -6 3 -14 -3 -20 -12 -6 -11 -11 -13 -11 -5 0 9 -5 10 -19 3 -10 -6 -21
-7 -25 -4 -3 3 -6 0 -6 -8 0 -11 -2 -11 -10 1 -7 12 -10 12 -10 1 0 -7 -6 -11
-15 -8 -8 4 -17 2 -21 -4 -3 -6 -12 -8 -20 -5 -7 3 -18 -3 -23 -12 -6 -10 -11
-12 -11 -4 0 10 -4 10 -19 0 -11 -7 -17 -16 -14 -21 3 -5 -4 -4 -15 2 -16 8
-21 7 -26 -5 -3 -8 -10 -13 -15 -9 -6 3 -14 -3 -20 -12 -6 -10 -11 -14 -11 -9
0 5 -7 3 -15 -4 -8 -7 -15 -9 -15 -5 0 4 -8 -1 -17 -12 -10 -10 -14 -12 -8 -3
7 11 5 11 -11 -2 -11 -10 -26 -18 -32 -18 -7 0 -12 -7 -12 -16 0 -8 -4 -12
-10 -9 -5 3 -21 -5 -34 -18 -14 -14 -27 -23 -29 -20 -3 2 -8 -5 -12 -16 -3
-12 -12 -21 -20 -21 -7 0 -16 -7 -19 -16 -3 -8 -11 -12 -17 -8 -7 4 -9 3 -5
-4 3 -6 1 -14 -5 -17 -5 -4 -8 -14 -4 -22 5 -14 3 -14 -12 -2 -15 12 -16 12
-10 -3 4 -11 0 -19 -12 -23 -10 -3 -18 -13 -17 -23 0 -9 -4 -17 -11 -17 -6 0
-15 -4 -20 -9 -5 -5 -3 -6 5 -2 6 4 12 2 12 -3 0 -6 -4 -11 -10 -11 -5 0 -10
-7 -10 -15 0 -9 -6 -18 -14 -21 -8 -3 -12 -12 -9 -20 3 -8 0 -14 -6 -14 -6 0
-11 -9 -11 -21 0 -12 -4 -17 -11 -13 -7 4 -6 -2 2 -17 11 -21 10 -22 -3 -12
-16 14 -16 12 -21 -41 -1 -13 -6 -22 -11 -18 -5 3 -7 -5 -4 -16 4 -12 3 -20
-1 -18 -4 3 -13 -4 -20 -16 -7 -11 -8 -17 -2 -13 6 3 11 1 11 -4 0 -6 -4 -11
-10 -11 -5 0 -10 -11 -10 -24 0 -14 -5 -28 -10 -31 -8 -5 -7 -11 1 -21 6 -8 7
-14 2 -14 -6 0 -10 -8 -10 -17 0 -37 -3 -44 -15 -37 -10 6 -10 4 0 -8 13 -16
12 -44 -3 -67 -5 -10 -4 -16 4 -19 9 -3 9 -7 0 -18 -9 -11 -9 -18 -1 -26 15
-15 16 -32 2 -23 -5 3 -10 1 -10 -4 0 -6 6 -11 14 -11 9 0 12 -8 8 -25 -2 -14
-8 -22 -13 -19 -5 3 -9 0 -9 -5 0 -6 6 -11 13 -11 8 0 8 -3 2 -8 -13 -8 -13
-22 -1 -41 6 -10 5 -12 -2 -7 -16 9 -16 -16 0 -32 9 -9 8 -13 -3 -17 -11 -4
-14 -18 -12 -50 2 -26 -1 -45 -7 -45 -5 0 -10 -5 -10 -11 0 -5 5 -7 10 -4 6 3
10 -1 10 -9 0 -9 -5 -16 -11 -16 -8 0 -7 -6 2 -17 10 -11 10 -14 2 -9 -7 4
-13 3 -13 -3 0 -5 6 -12 13 -14 9 -4 8 -8 -3 -17 -10 -8 -11 -13 -4 -16 13 -5
7 -41 -9 -62 -7 -9 -6 -11 5 -7 16 6 18 -20 4 -43 -4 -7 -2 -12 5 -12 7 0 4
-7 -7 -16 -10 -8 -14 -13 -8 -10 8 4 12 -7 11 -34 -1 -22 -5 -40 -10 -40 -4 0
-6 -4 -3 -8 2 -4 -4 -8 -14 -8 -10 0 -17 3 -14 7 5 9 -24 16 -58 15 -14 -1
-25 1 -23 5 8 12 -117 10 -133 -3 -10 -9 -13 -9 -9 -1 5 7 -8 5 -32 -5 -22 -9
-37 -20 -35 -23 2 -3 -8 -11 -21 -17 -14 -7 -25 -15 -24 -19 3 -20 -2 -34 -11
-28 -9 5 -15 -15 -11 -38 1 -4 -6 -10 -14 -13 -14 -6 -13 -8 2 -20 16 -12 16
-13 -7 -9 -21 4 -23 2 -10 -8 17 -13 25 -61 10 -52 -6 3 -7 -1 -4 -9 3 -9 11
-13 16 -10 6 4 7 -2 3 -16 -5 -15 -4 -20 4 -16 10 6 16 -13 12 -36 0 -5 6 -8
14 -8 14 0 20 -12 16 -33 -1 -5 3 -6 8 -3 5 4 22 -5 37 -19 14 -13 31 -22 37
-18 6 4 8 0 4 -10 -4 -11 -1 -17 8 -17 8 0 15 -6 15 -12 0 -9 4 -8 10 2 8 13
10 12 10 -3 0 -11 9 -21 20 -24 11 -3 20 -9 20 -14 0 -5 6 -8 13 -7 6 2 11 -2
10 -8 -1 -6 10 -11 24 -11 15 0 29 -6 31 -12 2 -6 8 -11 13 -11 6 0 7 5 3 12
-4 6 -3 8 4 4 6 -3 9 -16 7 -28 -3 -12 1 -26 8 -30 9 -6 9 -8 -1 -8 -8 0 -10
-5 -6 -12 5 -8 2 -9 -11 -4 -15 5 -16 4 -5 -9 10 -11 10 -22 3 -38 -7 -15 -7
-29 -1 -40 7 -13 5 -19 -6 -23 -12 -5 -13 -10 -5 -26 9 -16 8 -19 -2 -13 -9 6
-11 3 -6 -8 3 -9 2 -19 -3 -22 -5 -3 -7 -14 -5 -25 2 -11 -1 -20 -7 -20 -7 0
-6 -6 2 -15 10 -12 10 -15 0 -15 -8 0 -10 -3 -7 -7 4 -3 1 -13 -6 -21 -10 -13
-9 -15 3 -8 12 6 11 4 -1 -6 -9 -7 -14 -19 -11 -26 2 -7 -2 -20 -10 -29 -11
-14 -11 -16 2 -8 9 5 8 0 -4 -13 -11 -12 -15 -22 -11 -22 4 0 0 -10 -11 -22
-10 -12 -13 -18 -6 -14 6 4 12 3 12 -3 0 -5 -8 -15 -17 -20 -11 -6 -13 -11 -5
-11 7 0 10 -5 7 -10 -4 -6 -10 -8 -14 -5 -5 2 -7 -7 -5 -20 1 -14 -4 -31 -11
-39 -10 -10 -11 -16 -2 -25 8 -8 8 -11 -1 -11 -10 0 -25 -51 -26 -95 -1 -11
-5 -25 -9 -32 -4 -6 -3 -14 3 -18 6 -4 7 -12 3 -18 -12 -20 -12 -37 0 -37 7 0
5 -5 -3 -10 -12 -8 -12 -10 -1 -10 11 0 11 -3 1 -14 -9 -12 -7 -17 9 -28 12
-7 21 -20 21 -28 0 -13 -1 -13 -10 0 -6 9 -10 10 -10 3 0 -6 9 -18 20 -26 11
-8 17 -17 13 -21 -4 -4 0 -4 10 0 13 5 16 2 11 -10 -4 -11 -2 -16 7 -14 8 2
13 -3 11 -11 -3 -12 -1 -12 14 0 10 8 15 9 11 3 -4 -6 3 -20 15 -30 12 -11 18
-13 13 -5 -9 16 8 8 37 -16 9 -8 43 -17 75 -19 80 -6 83 -7 79 -13 -2 -3 13
-19 33 -36 20 -16 32 -23 26 -15 -6 10 -4 9 6 -1 12 -13 19 -15 28 -6 8 8 11
7 11 -7 0 -9 4 -15 9 -11 5 3 13 0 16 -6 4 -5 13 -8 21 -5 8 3 14 1 14 -5 0
-6 6 -9 14 -6 7 3 18 1 23 -4 5 -5 28 -10 51 -11 27 -1 39 -5 35 -12 -4 -6 1
-5 10 2 9 8 21 11 27 7 5 -3 10 0 10 7 0 9 3 9 10 -2 8 -13 14 -8 12 11 -1 3
5 6 13 6 8 0 12 -4 9 -9 -3 -4 2 -5 10 -2 9 3 13 11 9 18 -4 6 2 4 13 -4 10
-8 16 -10 12 -6 -14 16 12 37 32 26 13 -7 21 -6 26 2 5 7 3 8 -6 3 -9 -6 -11
-4 -6 4 5 7 15 10 23 7 10 -4 13 -2 10 8 -4 10 -1 13 9 9 7 -3 14 0 14 7 0 10
3 10 15 0 13 -11 14 -10 10 3 -4 8 -1 18 6 23 7 4 10 3 6 -3 -3 -5 0 -10 7
-10 8 0 12 6 9 14 -4 9 0 11 13 6 13 -5 16 -3 11 10 -4 11 -2 14 9 10 7 -3 14
-9 14 -15 0 -5 5 -6 11 -2 8 5 8 9 -1 14 -8 5 -9 10 -2 14 6 3 14 1 17 -4 5
-8 14 -5 28 7 19 17 20 17 14 0 -4 -9 -2 -17 3 -17 6 0 10 5 10 11 0 6 5 7 13
2 6 -4 17 -8 24 -9 6 -1 22 -11 34 -23 12 -11 26 -18 31 -15 4 3 8 -1 8 -9 0
-13 38 -46 50 -43 11 2 38 -29 32 -38 -3 -5 2 -7 11 -3 10 3 17 2 17 -4 0 -6
4 -7 10 -4 6 3 10 1 10 -4 0 -6 9 -11 21 -11 11 0 17 -4 14 -10 -3 -6 1 -7 10
-4 8 4 23 0 32 -7 12 -10 15 -10 9 -1 -9 15 -5 15 29 2 19 -7 24 -7 19 1 -4 8
0 8 15 0 11 -7 21 -8 21 -4 0 10 41 10 58 -1 7 -4 12 -2 12 4 0 6 8 11 18 10
26 -3 63 11 56 21 -3 5 3 6 12 2 12 -5 15 -3 9 6 -6 10 -3 11 14 2 16 -9 20
-9 15 2 -3 9 3 17 16 20 12 3 19 10 15 16 -3 6 0 9 8 5 8 -3 18 6 25 21 6 14
19 25 28 25 10 0 14 5 10 16 -3 9 -2 12 5 9 5 -4 20 0 33 8 18 12 26 13 36 4
10 -9 11 -9 6 0 -10 18 15 16 42 -3 13 -9 26 -14 29 -11 7 8 32 -16 26 -25 -6
-11 5 -10 27 2 16 9 18 8 14 -5 -5 -11 -2 -14 12 -8 12 5 15 3 9 -6 -5 -10 -2
-11 13 -7 13 4 22 1 26 -9 4 -10 11 -13 18 -8 19 11 38 12 38 2 0 -6 9 -5 21
2 15 8 19 8 15 0 -8 -13 21 -10 43 3 10 6 12 5 7 -2 -4 -7 -3 -12 3 -12 5 0
12 4 16 10 3 5 12 7 20 3 9 -3 15 1 15 8 0 11 3 11 10 -1 5 -8 10 -10 10 -4 0
7 7 15 16 18 10 4 13 2 8 -7 -5 -8 -2 -8 9 2 9 7 23 11 32 7 8 -3 14 -2 14 2
-3 19 2 25 11 12 8 -13 10 -12 10 4 0 13 5 16 17 12 10 -4 14 -4 11 0 -11 10
20 36 33 28 8 -5 9 -3 4 6 -5 8 -2 17 7 24 8 6 17 16 19 21 2 6 8 9 13 7 5 -2
4 3 -3 12 -9 11 -9 16 0 22 8 5 9 3 4 -6 -6 -9 -4 -11 4 -5 7 4 11 16 8 26 -3
12 -1 17 5 13 7 -5 9 2 6 19 -4 19 -1 24 10 19 10 -3 13 -1 8 6 -3 6 -2 13 4
17 6 4 8 11 5 16 -4 5 -1 9 6 9 7 0 4 7 -7 15 -16 13 -16 14 -1 9 20 -7 21 -1
7 26 -9 16 -8 18 6 13 13 -5 15 -3 7 13 -5 10 -9 33 -8 49 0 17 -3 36 -8 43
-6 7 -6 12 1 12 5 0 8 9 5 20 -3 11 -10 20 -15 20 -7 0 -7 4 -1 12 9 12 -7 62
-18 55 -2 -1 2 4 10 10 12 11 12 13 -2 19 -10 3 -17 10 -17 16 0 5 5 6 11 2 8
-5 8 -1 0 14 -6 11 -16 23 -23 25 -8 3 -5 6 6 6 15 1 16 4 6 16 -7 8 -9 15 -5
15 4 0 2 7 -5 15 -7 8 -10 24 -7 35 3 11 1 18 -3 15 -5 -3 -11 -1 -15 5 -3 5
0 10 7 10 8 0 9 3 3 8 -5 4 -12 18 -13 32 -2 14 -8 27 -13 28 -5 2 -9 8 -9 13
0 6 4 8 8 5 5 -3 9 1 9 9 0 8 -5 11 -10 8 -6 -4 -8 0 -4 10 3 9 2 19 -3 22 -5
3 -7 12 -3 20 3 8 0 15 -7 15 -10 0 -10 3 -1 14 9 11 9 16 1 21 -7 4 -10 22
-8 41 3 25 1 31 -8 23 -8 -7 -11 -5 -10 8 0 10 6 21 11 25 6 5 5 8 -3 8 -8 0
-12 12 -10 33 1 18 -2 39 -6 46 -7 10 -4 11 11 3 15 -9 20 -8 20 3 0 8 -4 12
-9 9 -15 -9 -8 3 9 17 11 10 14 10 9 2 -4 -7 -4 -13 0 -13 9 0 44 41 44 52 0
5 5 6 11 2 8 -4 7 -9 -2 -16 -11 -8 -11 -9 1 -5 8 2 14 9 13 15 -2 6 7 17 20
23 21 11 73 61 79 77 2 4 6 6 11 4 4 -1 7 3 7 9 0 5 4 7 10 4 6 -4 7 1 3 11
-4 11 -2 15 4 11 14 -9 37 38 29 58 -3 9 0 18 9 22 12 4 13 9 4 19 -6 8 -7 14
-2 14 5 0 8 13 5 30 -2 17 -9 30 -14 30 -5 0 -6 5 -3 10 3 6 1 10 -4 10 -6 0
-11 6 -11 13 0 18 -56 67 -76 67 -8 0 -12 5 -9 10 6 10 -13 15 -48 12 -10 -1
-16 2 -13 7 7 10 -64 8 -82 -2 -7 -5 -12 -3 -12 4 0 7 -9 5 -26 -6 -15 -9 -24
-13 -20 -7 3 5 -1 13 -10 16 -10 4 -13 2 -8 -7 5 -7 1 -7 -10 2 -9 8 -13 17
-9 20 13 9 12 41 -1 41 -6 0 -4 5 4 10 11 7 11 10 2 10 -10 0 -10 5 -2 20 10
19 6 24 -13 21 -5 -1 -6 3 -2 9 3 6 10 8 15 5 4 -3 7 3 6 13 0 9 -7 20 -15 23
-11 4 -10 8 3 22 15 15 15 17 2 17 -10 0 -13 6 -10 15 4 8 11 12 16 9 6 -4 3
5 -7 19 -15 24 -15 26 2 30 13 3 14 5 2 6 -12 1 -15 11 -12 47 2 25 0 43 -5
40 -9 -6 -7 47 3 63 3 6 2 11 -3 11 -15 0 -23 28 -10 36 6 4 8 3 4 -4 -3 -6
-3 -13 2 -16 4 -2 8 6 8 19 0 13 -3 22 -6 20 -3 -2 -12 5 -19 17 -10 16 -10
19 1 12 10 -6 11 -5 1 7 -7 8 -13 36 -15 62 -2 26 -5 47 -8 47 -3 0 -7 8 -8
18 -3 32 -7 47 -16 61 -7 11 -6 12 5 6 12 -8 12 -6 0 8 -7 9 -9 17 -4 17 5 0
10 7 10 15 0 8 -4 15 -9 15 -5 0 -3 7 5 15 10 10 13 25 9 47 -3 18 -6 45 -6
60 0 15 -4 24 -8 22 -7 -5 -12 10 -9 29 0 4 -3 7 -7 7 -8 0 -12 15 -13 53 0
13 -5 17 -16 12 -15 -5 -15 -4 0 13 14 16 15 19 2 19 -8 0 -15 -5 -15 -10 0
-6 -3 -7 -6 -4 -4 4 -1 13 6 22 8 9 8 15 2 15 -11 0 -28 38 -24 53 1 4 -5 7
-13 7 -8 0 -15 5 -15 11 0 5 5 7 11 3 6 -3 4 5 -5 18 -9 14 -13 28 -9 32 4 4
0 4 -9 1 -9 -4 -19 -1 -24 6 -4 8 -3 10 4 5 7 -4 12 -3 12 2 0 6 -7 13 -16 16
-9 4 -14 13 -10 22 3 8 2 13 -2 10 -5 -3 -15 4 -22 15 -8 10 -21 19 -29 19 -8
0 -11 3 -8 7 4 3 -1 12 -11 20 -10 9 -11 11 -2 7 13 -7 13 -6 1 9 -10 13 -17
14 -27 6 -10 -8 -12 -6 -9 10 3 15 0 18 -12 14 -12 -5 -14 -3 -8 7 6 10 2 11
-20 6 -25 -6 -26 -6 -11 9 21 21 20 25 -4 20 -12 -2 -20 2 -20 10 0 9 -6 12
-15 9 -8 -4 -15 -1 -15 6 0 6 -4 8 -10 5 -5 -3 -10 0 -10 7 0 9 -3 9 -10 -2
-8 -12 -10 -11 -10 8 0 12 -5 22 -11 22 -5 0 -7 -5 -4 -10 4 -6 -5 -5 -19 2
-14 6 -26 15 -26 20 0 4 -8 8 -19 8 -10 0 -24 6 -31 14 -6 8 -18 12 -26 9 -8
-3 -14 1 -14 8 0 12 -2 12 -9 1 -7 -11 -9 -11 -14 1 -3 9 -16 14 -31 13 -14
-2 -23 0 -21 4 6 9 -54 22 -66 14 -5 -3 -9 0 -9 7 0 8 -5 7 -17 -2 -14 -12
-16 -12 -8 0 6 11 3 13 -13 9 -12 -4 -22 -1 -22 4 0 6 -8 4 -17 -3 -11 -10
-14 -10 -9 -1 5 8 0 12 -14 12 -14 0 -19 -4 -14 -12 5 -9 2 -9 -9 1 -9 7 -17
10 -17 7 0 -4 -9 -2 -19 4 -14 7 -21 6 -24 -3 -4 -8 -8 -8 -14 -2 -12 15 -34
17 -49 4 -11 -9 -14 -9 -14 0 0 9 -5 9 -21 0 -15 -8 -19 -8 -15 0 9 13 6 14
-13 2z m1329 -1985 c0 -2 -7 -7 -16 -10 -8 -3 -12 -2 -9 4 6 10 25 14 25 6z"/>
<path d="M1530 3189 c0 -5 5 -7 10 -4 6 3 10 8 10 11 0 2 -4 4 -10 4 -5 0 -10
-5 -10 -11z"/>
<path d="M1533 3143 c0 -11 7 -20 14 -20 10 0 10 4 1 16 -7 9 -13 18 -15 20
-1 2 -1 -5 0 -16z"/>
</g>
</svg>
